<?xml version="1.0" standalone="no"?>
<!DOCTYPE svg PUBLIC "-//W3C//DTD SVG 20010904//EN"
 "http://www.w3.org/TR/2001/REC-SVG-20010904/DTD/svg10.dtd">
<svg version="1.0" xmlns="http://www.w3.org/2000/svg"
 width="512.000000pt" height="512.000000pt" viewBox="0 0 512.000000 512.000000"
 preserveAspectRatio="xMidYMid meet">
<metadata>
Created by potrace 1.15, written by Peter Selinger 2001-2017
</metadata>
<g transform="translate(0.000000,512.000000) scale(0.100000,-0.100000)"
fill="#000000" stroke="none">
<path d="M2345 4919 c-1255 -117 -2206 -1199 -2151 -2449 35 -812 460 -1529
1154 -1944 741 -445 1692 -444 2432 4 1046 633 1440 1939 919 3049 -192 408
-522 771 -919 1011 -426 257 -939 375 -1435 329z m278 -1634 c41 -14 64 -39
84 -90 8 -20 12 -128 12 -338 1 -192 5 -316 11 -328 8 -14 21 -19 55 -19 47 0
73 18 102 73 8 16 55 89 104 164 49 74 89 139 89 145 0 25 153 318 168 322 10
3 143 6 298 8 253 3 283 1 307 -15 83 -54 27 -186 -220 -518 -129 -173 -200
-282 -208 -318 -9 -43 14 -80 102 -158 363 -322 431 -435 321 -528 -91 -77
-471 -99 -601 -36 -57 28 -267 222 -317 294 -61 85 -120 108 -172 67 -32 -25
-48 -86 -48 -184 0 -87 -18 -135 -60 -160 -37 -21 -277 -33 -370 -17 -114 19
-357 145 -462 240 -123 111 -415 473 -551 681 -178 275 -284 563 -231 627 57
68 415 84 533 23 40 -20 55 -47 117 -205 15 -38 46 -99 69 -135 22 -36 65
-110 95 -165 33 -59 78 -123 110 -157 49 -50 61 -58 94 -58 35 0 39 3 59 48
21 45 22 58 19 271 -3 240 -10 277 -54 304 -12 8 -39 18 -59 21 -49 9 -75 37
-59 65 13 25 72 57 143 76 73 19 466 20 520 0z"/>
</g>
</svg>
